<svg preserveAspectRatio="none" overflow="visible" style="display: block;" width="20" height="14" viewBox="0 0 20 14" fill="none" xmlns="http://www.w3.org/2000/svg">
<g id="Group">
<path id="Vector" d="M1 1H19" stroke="#717279" stroke-width="2" stroke-linecap="round" stroke-linejoin="round"/>
<path id="Vector_2" d="M7 1C7 1.79565 6.68393 2.55871 6.12132 3.12132C5.55871 3.68393 4.79565 4 4 4C3.20435 4 2.44129 3.68393 1.87868 3.12132C1.31607 2.55871 1 1.79565 1 1" stroke="#717279" stroke-width="2" stroke-linecap="round" stroke-linejoin="round"/>
<path id="Vector_3" d="M19 1C19 1.79565 18.6839 2.55871 18.1213 3.12132C17.5587 3.68393 16.7956 4 16 4C15.2044 4 14.4413 3.68393 13.8787 3.12132C13.3161 2.55871 13 1.79565 13 1" stroke="#717279" stroke-width="2" stroke-linecap="round" stroke-linejoin="round"/>
<path id="Vector_4" d="M10 1V13" stroke="#717279" stroke-width="2" stroke-linecap="round" stroke-linejoin="round"/>
<path id="Vector_5" d="M6 13H14" stroke="#717279" stroke-width="2" stroke-linecap="round" stroke-linejoin="round"/>
<path id="Vector_6" d="M15 2.5C15 2.76522 15.1054 3.01957 15.2929 3.20711C15.4804 3.39464 15.7348 3.5 16 3.5C16.2652 3.5 16.5196 3.39464 16.7071 3.20711C16.8946 3.01957 17 2.76522 17 2.5C17 2.23478 16.8946 1.98043 16.7071 1.79289C16.5196 1.60536 16.2652 1.5 16 1.5C15.7348 1.5 15.4804 1.60536 15.2929 1.79289C15.1054 1.98043 15 2.23478 15 2.5Z" stroke="#717279" stroke-width="2" stroke-linecap="round" stroke-linejoin="round"/>
</g>
</svg>
